<svg xmlns="http://www.w3.org/2000/svg" viewBox="0 0 222.95 96.81">
    <defs>
        <style>
            .cls-1{fill:#26b9a4;}.cls-2{fill:#ffe576;}.cls-3{fill:#fff;}.cls-4{fill:#80d7f9;}.cls-5{fill:#ff9f57;}.cls-6{fill:#bcbcbc;}.cls-7{fill:#4d4b4b;}.cls-8{fill:none;}
        </style>
    </defs>
    <title>Asset 1</title>
    <g id="Layer_2" data-name="Layer 2">
        <g id="Layer_2-2" data-name="Layer 2">
            <path class="cls-1"
                  d="M217.7,72.07c-1.08,4-5.88,3.33-9,3.33h-5.54c-1.72-14.59-14.34-25.74-29.21-26s-27.45,11.68-29.2,26H74.7C73,61.13,61,50.2,46.45,49.41c-15.31-.82-28,11.2-30.07,25.72-3.2-.35-6.46-1.31-7.37-4.63-1.29-4.69.74-10.92,2.52-15.64H22.1a3.52,3.52,0,0,0,.65,0,3.81,3.81,0,0,0,1-.13C28,54,30.7,51,31.1,46.51s-4.18-8.36-8.42-8.36h-2a118.86,118.86,0,0,1,8.52-10.24c3.11,0,6.22,0,9.33,0s4.69-2,7.12-3.82A62.17,62.17,0,0,1,53,19.56c11.22-6,24.24-9.36,36.89-10.45a82.4,82.4,0,0,1,63.38,21.72,3.28,3.28,0,0,0,2.08.94l.33.06A169.43,169.43,0,0,1,194.28,41a10.13,10.13,0,0,0-2.8,5.77,3.31,3.31,0,0,0-.14,1.29,3.15,3.15,0,0,0,.16,1.33c.61,3.72,2.74,6.73,6.6,7.85,1.81.52,4.15.2,6,.2h14.06c.11,1.77-.14,4.08-.14,5.66C218,66,218.47,69.27,217.7,72.07Z"/>
            <path class="cls-1"
                  d="M219.7,74.07c-1.08,4-5.88,3.33-9,3.33h-5.54c-1.72-14.59-14.34-25.74-29.21-26s-27.45,11.68-29.2,26H76.7C75,63.13,63,52.2,48.45,51.41c-15.31-.82-28,11.2-30.07,25.72-3.2-.35-6.46-1.31-7.37-4.63-1.29-4.69.74-10.92,2.52-15.64H24.1a3.52,3.52,0,0,0,.65,0,3.81,3.81,0,0,0,1-.13C30,56,32.7,53,33.1,48.51s-4.18-8.36-8.42-8.36h-2a118.86,118.86,0,0,1,8.52-10.24c3.11,0,6.22,0,9.33,0s4.69-2,7.12-3.82A62.17,62.17,0,0,1,55,21.56c11.22-6,24.24-9.36,36.89-10.45a82.4,82.4,0,0,1,63.38,21.72,3.28,3.28,0,0,0,2.08.94l.33.06A169.43,169.43,0,0,1,196.28,43a10.13,10.13,0,0,0-2.8,5.77,3.31,3.31,0,0,0-.14,1.29,3.15,3.15,0,0,0,.16,1.33c.61,3.72,2.74,6.73,6.6,7.85,1.81.52,4.15.2,6,.2h14.06c.11,1.77-.14,4.08-.14,5.66C220,68,220.47,71.27,219.7,74.07Z"/>
            <path class="cls-2"
                  d="M206.94,48.05c.9.47,1.86,1,2.81,1.55H200.6c-1.91,0-3.27-.06-3.45-2.56C197.53,41.63,204.6,46.81,206.94,48.05Z"/>
            <path class="cls-3" d="M116.57,21.75,77.23,20.41A78.25,78.25,0,0,1,116.57,21.75Z"/>
            <path class="cls-4" d="M117.57,22.75,78.23,21.41A78.25,78.25,0,0,1,117.57,22.75Z"/>
            <path class="cls-5" d="M21.75,47H13.62c.55-1,1.12-2,1.7-3.07h6.36A1.54,1.54,0,0,1,21.75,47Z"/>
            <path class="cls-6"
                  d="M45.73,92c-7.33.2-13-6.14-13.16-13.17-.21-7.33,6.14-13,13.16-13.16,7.34-.21,13,6.13,13.17,13.16A13.35,13.35,0,0,1,45.73,92Z"/>
            <path class="cls-6"
                  d="M174,92c-7.33.2-13-6.14-13.17-13.17-.2-7.33,6.14-13,13.17-13.16,7.34-.21,13,6.13,13.17,13.16A13.36,13.36,0,0,1,174,92Z"/>
            <path class="cls-7"
                  d="M63.69,76.25a20.29,20.29,0,0,0-20-19.42c-11.09-.31-19.68,9.35-20,20-.31,11.1,9.35,19.69,20,20,10.9.3,19.38-9,20-19.42a5.17,5.17,0,0,0,0-.57A5,5,0,0,0,63.69,76.25ZM43.73,90c-7.33.2-13-6.14-13.16-13.17-.21-7.33,6.14-13,13.16-13.16,7.34-.21,13,6.13,13.17,13.16A13.35,13.35,0,0,1,43.73,90Z"/>
            <path class="cls-7"
                  d="M191.94,76.25a20.29,20.29,0,0,0-20-19.42c-11.1-.31-19.69,9.35-20,20-.31,11.1,9.35,19.69,20,20,10.9.3,19.37-9,20-19.42a5.17,5.17,0,0,0,0-.57A5,5,0,0,0,191.94,76.25ZM172,90c-7.33.2-13-6.14-13.17-13.17-.2-7.33,6.14-13,13.17-13.16,7.34-.21,13,6.13,13.17,13.16A13.36,13.36,0,0,1,172,90Z"/>
            <path class="cls-7"
                  d="M135.55,22.8C111.46,8.19,81.67,8.88,56.42,20.22c-3.28,1.48-1.4,6.25,1.72,6.36l75.06,2.55a2.87,2.87,0,0,0,1.37,0,3,3,0,0,0,2.53-2.81A3.17,3.17,0,0,0,135.55,22.8Zm-19-1.05L77.23,20.41A78.25,78.25,0,0,1,116.57,21.75Z"/>
            <path class="cls-8"
                  d="M196.15,46c.18,2.5,1.54,2.56,3.45,2.56h9.15c-.95-.57-1.91-1.08-2.81-1.55C203.6,45.81,196.53,40.63,196.15,46Z"/>
            <path class="cls-8" d="M20.68,43H14.32c-.58,1-1.15,2-1.7,3.07h8.13A1.54,1.54,0,0,0,20.68,43Z"/>
            <path class="cls-7"
                  d="M61.93,9.62a3.24,3.24,0,0,0,3.91,1.76l.63-.2a3.24,3.24,0,0,0,2.21-3.89l-.05-.21a3.25,3.25,0,0,0-4.07-2.34h0l-.7.21a3.25,3.25,0,0,0-2,4.47Z"/>
            <path class="cls-7"
                  d="M222.77,53.75C221.65,44,208.39,38.37,200.69,35c-14.44-6.25-29.95-9.9-45.53-11.84A89.33,89.33,0,0,0,99.46.13,93.66,93.66,0,0,0,77.12,1.69,3.39,3.39,0,0,0,75,7h0a3.41,3.41,0,0,0,3.37,1.34c3.16-.56,6.34-1,9.49-1.25a82.4,82.4,0,0,1,63.38,21.72,3.28,3.28,0,0,0,2.08.94l.33.06A169.43,169.43,0,0,1,192.28,39a10.13,10.13,0,0,0-2.8,5.77,3.31,3.31,0,0,0-.14,1.29,3.15,3.15,0,0,0,.16,1.33c.61,3.72,2.74,6.73,6.6,7.85,1.81.52,4.15.2,6,.2h14.06c.11,1.77-.14,4.08-.14,5.66,0,2.87.46,6.19-.31,9-1.08,4-5.88,3.33-9,3.33h-5.54c-1.72-14.59-14.34-25.74-29.21-26s-27.45,11.68-29.2,26H104.85a3.41,3.41,0,0,0-3.41,3.41h0a3.4,3.4,0,0,0,3.41,3.41H146a3.41,3.41,0,0,0,3.38-3.46A22.85,22.85,0,0,1,172,54.21c12.36-.22,22.64,10.48,22.6,22.67a3.38,3.38,0,0,0,3.4,3.34c7.24,0,17.06,1.84,22.21-4.49,2.89-3.55,2.64-7.76,2.64-12A89.24,89.24,0,0,0,222.77,53.75ZM206.53,48.6H199.6c-1.91,0-3.27-.06-3.45-2.56.38-5.41,7.45-.23,9.79,1,.9.47,1.86,1,2.81,1.55Z"/>
            <path class="cls-7"
                  d="M89.44,76.81h0a3.4,3.4,0,0,0,3.41,3.41h1.64a3.41,3.41,0,0,0,3.41-3.41h0a3.41,3.41,0,0,0-3.41-3.41H92.85A3.41,3.41,0,0,0,89.44,76.81Z"/>
            <path class="cls-7"
                  d="M72.7,73.4C71,59.13,59,48.2,44.45,47.41c-15.31-.82-28,11.2-30.07,25.72-3.2-.35-6.46-1.31-7.37-4.63-1.29-4.69.74-10.92,2.52-15.64H20.1a3.52,3.52,0,0,0,.65,0,3.81,3.81,0,0,0,1-.13C26,52,28.7,49,29.1,44.51c.46-5.2-5.54-9.39-10.15-8.13l-.23-.31a117.08,117.08,0,0,1,8.46-10.16c3.11,0,6.22,0,9.33,0s4.69-2,7.12-3.82A62.17,62.17,0,0,1,51,17.56c1.43-.77,2.89-1.49,4.37-2.18A5.22,5.22,0,0,0,58.12,11h0c0-2.3-1.75-3.49-3.87-2.6A70.16,70.16,0,0,0,36.48,19.07l-7.22,0c-1.49,0-3.27-.26-4.67.19L14.43,19c-6.54-3-7.26,6-2.24,6.22l6.22.3A102.81,102.81,0,0,0,9.14,38.34l-.35.54c-.9,1.48-1.72,3-2.5,4.54-.06.13-.13.25-.2.38-4,7.81-7.3,17.66-5.66,26.51,1.46,7.87,10.44,9.53,17.06,9.85a3.43,3.43,0,0,0,3.4-3.41,22.89,22.89,0,0,1,22.6-22.54C55.84,54,66.12,64.68,66.09,76.87a3.41,3.41,0,0,0,3.43,3.35H83.2a3.41,3.41,0,0,0,3.41-3.41h0A3.41,3.41,0,0,0,83.2,73.4ZM14.32,43h6.36A1.54,1.54,0,0,1,20.75,46H12.62C13.17,45,13.74,44,14.32,43Z"/>
        </g>
    </g>
</svg>