<svg xmlns="http://www.w3.org/2000/svg" viewBox="0 0 261.13 113.35">
    <defs>
        <style>
            .cls-1{fill:#26b9a4;}.cls-2{fill:#fff;}.cls-3{fill:#80d7f9;}.cls-4{fill:#dbdbdb;}.cls-5{fill:#ffe576;}.cls-6{fill:#bcbcbc;}.cls-7{fill:#4d4b4b;}
        </style>
    </defs>
    <title>Asset 2</title>
    <g id="Layer_2" data-name="Layer 2">
        <g id="Layer_2-2" data-name="Layer 2">
            <path class="cls-1"
                  d="M246.16,96.63h-8.35a27.78,27.78,0,0,0-23.91-26.3l-.23-.08-.3-.1a4,4,0,0,0-.69-.11c-.73-.07-1.45-.1-2.18-.11s-1.45,0-2.17.11a3.56,3.56,0,0,0-.57.09,27.78,27.78,0,0,0-10.08,3.06V27h32.38c2.69,0,5.44-.25,8.06.47,8.66,2.36,11.82,14.38,13.5,21.92a96.28,96.28,0,0,1,2,18.15h-5a3.44,3.44,0,0,0-3.41,3.41v10.4a3.41,3.41,0,0,0,3.41,3.41h5v.85h-5c-4.4,0-4.4,6.82,0,6.82h6.74l.79.94C255.15,97.52,249.63,96.63,246.16,96.63Z"/>
            <path class="cls-1" d="M181,86.52V97.66H87.74a27.66,27.66,0,0,0-2.31-11.14H181Z"/>
            <path class="cls-1" d="M183,88.52V99.66H89.74a27.66,27.66,0,0,0-2.31-11.14H183Z"/>
            <path class="cls-1"
                  d="M248.16,98.63h-8.35a27.78,27.78,0,0,0-23.91-26.3l-.23-.08-.3-.1a4,4,0,0,0-.69-.11c-.73-.07-1.45-.1-2.18-.11s-1.45,0-2.17.11a3.56,3.56,0,0,0-.57.09,27.78,27.78,0,0,0-10.08,3.06V29h32.38c2.69,0,5.44-.25,8.06.47,8.66,2.36,11.82,14.38,13.5,21.92a96.28,96.28,0,0,1,2,18.15h-5a3.44,3.44,0,0,0-3.41,3.41v10.4a3.41,3.41,0,0,0,3.41,3.41h5v.85h-5c-4.4,0-4.4,6.82,0,6.82h6.74l.79.94C257.15,99.52,251.63,98.63,248.16,98.63Z"/>
            <path class="cls-1" d="M18.55,97.66l-9.48-8.1v-3H35.43a27.62,27.62,0,0,0-2.31,11.14Z"/>
            <path class="cls-1" d="M20.55,99.66l-9.48-8.1v-3H37.43a27.62,27.62,0,0,0-2.31,11.14Z"/>
            <path class="cls-2"
                  d="M223.73,37.58c2.41,4.12,3.31,9.51,3.75,14.5H206.82V35.49h7.51C218,35.49,221.77,34.21,223.73,37.58Z"/>
            <path class="cls-3"
                  d="M224.73,38.58c2.41,4.12,3.31,9.51,3.75,14.5H207.82V36.49h7.51C219,36.49,222.77,35.21,224.73,38.58Z"/>
            <path class="cls-4" d="M93,70.06H9V8.82H181V70.06Z"/>
            <path class="cls-5" d="M251,73.32h1.56V76.9H251Z"/>
            <path class="cls-6"
                  d="M210.5,108.52c-6.14.2-10.8-5.15-11-11-.2-6.15,5.14-10.81,11-11,6.15-.2,10.81,5.14,11,11A11.16,11.16,0,0,1,210.5,108.52Z"/>
            <path class="cls-4" d="M78.76,60.51H18.56V18.36H171.43V60.51Z"/>
            <path class="cls-6"
                  d="M60.43,108.52c-6.15.2-10.81-5.15-11-11-.2-6.15,5.15-10.81,11-11,6.15-.2,10.81,5.14,11,11A11.16,11.16,0,0,1,60.43,108.52Z"/>
            <path class="cls-7"
                  d="M76.21,94.88A18.11,18.11,0,0,0,58.43,77.71c-9.92-.32-17.51,8.37-17.82,17.81C40.29,105.44,49,113,58.43,113.34c9.69.31,17.16-8,17.78-17.17a5.22,5.22,0,0,0,0-1.29ZM58.43,106.52c-6.15.2-10.81-5.15-11-11-.2-6.15,5.15-10.81,11-11,6.15-.2,10.81,5.14,11,11A11.16,11.16,0,0,1,58.43,106.52Z"/>
            <path class="cls-7"
                  d="M226.28,94.88A18.1,18.1,0,0,0,208.5,77.71c-9.92-.32-17.51,8.37-17.81,17.81-.32,9.92,8.37,17.51,17.81,17.82,9.69.31,17.16-8,17.78-17.17a5.22,5.22,0,0,0,0-1.29ZM208.5,106.52c-6.14.2-10.8-5.15-11-11-.2-6.15,5.14-10.81,11-11,6.15-.2,10.81,5.14,11,11A11.16,11.16,0,0,1,208.5,106.52Z"/>
            <path class="cls-7"
                  d="M172.84,9.54H13.15A3.45,3.45,0,0,0,9.74,13v49a3.16,3.16,0,0,0,1,2.42,3.15,3.15,0,0,0,2.41,1H172.84a3.44,3.44,0,0,0,3.41-3.41V13A3.45,3.45,0,0,0,172.84,9.54Zm-96.08,49H16.56V16.36H169.43V58.51Z"/>
            <path class="cls-7"
                  d="M260.07,87.78l-1.65-1.94c0-14.17.67-28.3-2.67-42.2-2.34-9.76-6.85-20.37-16.72-24.42-5.54-2.27-12.92-1.08-18.74-1.08h-28a3.45,3.45,0,0,0-3.41,3.41V77.6c0,3.13,3.64,4.31,5.82,2.41a21.12,21.12,0,0,1,12.55-5.16h1.17C221,75.1,229.91,85.68,228.94,98a3.42,3.42,0,0,0,3.41,3.41h17.33a11.29,11.29,0,0,0,10.54-6.83C261.15,92.42,261.74,89.75,260.07,87.78ZM250,72.32h1.56V75.9H250Zm-5.88,22.31h-8.35a27.78,27.78,0,0,0-23.91-26.3l-.23-.08-.3-.1a4,4,0,0,0-.69-.11c-.73-.07-1.45-.1-2.18-.11s-1.45,0-2.17.11a3.56,3.56,0,0,0-.57.09,27.78,27.78,0,0,0-10.08,3.06V25h32.38c2.69,0,5.44-.25,8.06.47,8.66,2.36,11.82,14.38,13.5,21.92a96.28,96.28,0,0,1,2,18.15h-5a3.44,3.44,0,0,0-3.41,3.41v10.4a3.41,3.41,0,0,0,3.41,3.41h5v.85h-5c-4.4,0-4.4,6.82,0,6.82h6.74l.79.94C253.15,95.52,247.63,94.63,244.16,94.63Z"/>
            <path class="cls-7"
                  d="M42.24,82.83c1.56-2.15-.54-5.12-2.94-5.12H3.66a3.16,3.16,0,0,0-2.42,1,3.14,3.14,0,0,0-1,2.4c0,3-1.14,8.59,1.44,10.8l10.53,9c2.71,2.32,6.4,1.58,9.8,1.58H34.74c1.69,0,3.64-1.56,3.41-3.41A22.11,22.11,0,0,1,42.24,82.83ZM16.55,95.66l-9.48-8.1v-3H33.43a27.62,27.62,0,0,0-2.31,11.14Z"/>
            <path class="cls-7"
                  d="M229.06,33.21c-2.82-4.41-6.65-4.54-11.43-4.54H203.41A3.44,3.44,0,0,0,200,32.08V55.49a3.44,3.44,0,0,0,3.41,3.41h27.73a3.32,3.32,0,0,0,1.75-.46,2.86,2.86,0,0,0,1.66-2.95C234.11,48.14,233.1,39.53,229.06,33.21Zm-5.33,4.37c2.41,4.12,3.31,9.51,3.75,14.5H206.82V35.49h7.51C218,35.49,221.77,34.21,223.73,37.58Z"/>
            <path class="cls-7"
                  d="M34.94,0H34.1a3.41,3.41,0,0,0-3.41,3.41h0A3.41,3.41,0,0,0,34.1,6.82h.84a3.41,3.41,0,0,0,3.41-3.41h0A3.41,3.41,0,0,0,34.94,0Z"/>
            <path class="cls-7"
                  d="M182.39,0H44.1a3.41,3.41,0,0,0-3.41,3.41h0A3.41,3.41,0,0,0,44.1,6.82H179V68.06H7V6.82H24.94a3.41,3.41,0,0,0,3.41-3.41h0A3.41,3.41,0,0,0,24.94,0H3.6A3.42,3.42,0,0,0,.19,3.41V71.47a3.15,3.15,0,0,0,1,2.41,3.15,3.15,0,0,0,2.41,1H182.39a3.43,3.43,0,0,0,3.41-3.41V3.41A3.42,3.42,0,0,0,182.39,0Z"/>
            <path class="cls-7"
                  d="M158.31,102.48h0a3.29,3.29,0,0,0,3.29-3.29V99a3.29,3.29,0,0,0-3.29-3.29h0A3.29,3.29,0,0,0,155,99v.24A3.29,3.29,0,0,0,158.31,102.48Z"/>
            <path class="cls-7"
                  d="M182.39,77.71H77.56A3.08,3.08,0,0,0,74.92,79a2.76,2.76,0,0,0-.3,3.83,22.05,22.05,0,0,1,4.09,16.24c-.23,1.85,1.72,3.41,3.41,3.41h66.07a3.41,3.41,0,0,0,3.41-3.41h0a3.41,3.41,0,0,0-3.41-3.41H85.74a27.66,27.66,0,0,0-2.31-11.14H179V95.66H168.43A3.41,3.41,0,0,0,165,99.07h0a3.41,3.41,0,0,0,3.41,3.41h14a3.42,3.42,0,0,0,3.41-3.41v-18A3.42,3.42,0,0,0,182.39,77.71Z"/>
        </g>
    </g>
</svg>