<?xml version="1.0" encoding="utf-8"?>
<!-- Generator: Adobe Illustrator 19.0.1, SVG Export Plug-In . SVG Version: 6.00 Build 0)  -->
<svg version="1.1" xmlns="http://www.w3.org/2000/svg" x="0px" y="0px"
     viewBox="0 0 128 128" style="enable-background:new 0 0 128 128;" xml:space="preserve">
<style type="text/css">
	.st0{display:none;}
	.st1{display:inline;fill:#F3F3F3;}
	.st2{display:inline;fill:#3C3C3C;}
	.st3{display:none;fill:#3C3C3C;}
	.st4{fill:#26B9A4;}
</style>
    <g id="background" class="st0">
	<rect id="bg" x="-236" y="-186" class="st1" width="600" height="500"/>
</g>
    <g id="Racing">
	<g id="row3" class="st0">
		<path id="stopwatch" class="st2" d="M91.8,67.1c-0.4-0.9-1.4-1.3-2.3-0.9l-19.7,8.5c-1.4-1.7-3.5-2.7-5.8-2.7
			c-4.2,0-7.6,3.5-7.6,7.8c0,4.3,3.4,7.7,7.6,7.7s7.6-3.5,7.6-7.7c0-0.7-0.1-1.3-0.2-1.9l19.5-8.4C91.8,69,92.2,68,91.8,67.1z
			 M91.8,67.1c-0.4-0.9-1.4-1.3-2.3-0.9l-19.7,8.5c-1.4-1.7-3.5-2.7-5.8-2.7c-4.2,0-7.6,3.5-7.6,7.8c0,4.3,3.4,7.7,7.6,7.7
			s7.6-3.5,7.6-7.7c0-0.7-0.1-1.3-0.2-1.9l19.5-8.4C91.8,69,92.2,68,91.8,67.1z M91.8,67.1c-0.4-0.9-1.4-1.3-2.3-0.9l-19.7,8.5
			c-1.4-1.7-3.5-2.7-5.8-2.7c-4.2,0-7.6,3.5-7.6,7.8c0,4.3,3.4,7.7,7.6,7.7s7.6-3.5,7.6-7.7c0-0.7-0.1-1.3-0.2-1.9l19.5-8.4
			C91.8,69,92.2,68,91.8,67.1z M93.9,42.1l3.7-4c0.1-0.1,0.2-0.2,0.2-0.3l2.2,2.1c1.2,1.2,3,1.3,4,0.3l0.5-0.5c0.9-1,0.7-2.8-0.5-4
			l-8.5-8.1c-1.2-1.2-3.1-1.3-4-0.3l-0.5,0.5c-0.9,1-0.7,2.9,0.5,4l2.2,2.1c-0.1,0.1-0.2,0.1-0.3,0.2l-4.2,4.6
			c-5.9-3.7-12.6-6.2-19.8-7c6.2-2.2,10.7-8.3,10.7-15.4C80.2,7.3,72.9,0,64,0S47.8,7.3,47.8,16.3c0,7.1,4.5,13.1,10.7,15.4
			c-23.7,2.7-42.2,23.2-42.2,48c0,26.6,21.3,48.3,47.6,48.3s47.6-21.7,47.6-48.3C111.6,64.5,104.7,51,93.9,42.1z M51.4,16.3
			C51.4,9.2,57,3.5,64,3.5s12.6,5.7,12.6,12.8c0,6.1-4.2,11.1-9.8,12.4v-4.3h1.9c1.4,0,2.6-1.2,2.6-2.6v0c0-1.4-1.2-2.6-2.6-2.6
			h-9.4c-1.4,0-2.6,1.2-2.6,2.6v0c0,1.4,1.2,2.6,2.6,2.6h1.9v4.3C55.5,27.4,51.4,22.4,51.4,16.3z M93.9,107.5l-8.1-8.3l-2.5,2.5
			l8.2,8.3c-6.8,6.3-15.8,10.4-25.6,10.8v-11.7h-3.5v11.7c-9.9-0.4-18.8-4.5-25.6-10.8l8.2-8.3l-2.5-2.5l-8.1,8.3
			c-6.2-6.9-10.2-16-10.6-26.1H35v-3.5H23.5c0.4-10,4.3-19.1,10.6-26.1l8.1,8.3l2.5-2.5l-8.2-8.3c6.8-6.4,15.8-10.4,25.6-10.9v11.8
			h3.5V38.5c9.9,0.4,18.8,4.5,25.6,10.9l-8.2,8.3l2.5,2.5l8.1-8.3c6.3,6.9,10.2,16.1,10.6,26.1H93v3.5h11.5
			C104.1,91.5,100.1,100.6,93.9,107.5z"/>
        <path id="cup" class="st2" d="M95.8,118.1H36.4v-7.7h59.4V118.1z M95.8,120.3H36.4v7.7h59.4V120.3z M112.6,9.3v2
			c0,17.4-11.4,32.6-27.9,39.6c-3.9,7.2-8.8,12.3-14.1,14.4v20.9l25,20.7H36.7l25-20.7v-20c-6.2-1.3-11.8-6.5-16.3-14.4
			c-17.6-6.6-29.9-22.2-29.9-40.4v-2h19.7c0-1.2-0.1-2.3-0.1-3.5h59.4c0,1.2,0,2.3-0.1,3.5H112.6z M42.7,46.2
			c-3.9-9-6.6-20.3-7.3-32.9H19.5C20.3,27.5,29.4,39.7,42.7,46.2z M108.5,13.3H94.2c-0.7,12.1-3.2,23-6.9,31.8
			C99.5,38.5,107.8,26.8,108.5,13.3z M94.5,0H35.1v4h59.4V0z"/>
        <path id="helmet" class="st2" d="M5.2,90.7C4,90.9,2.9,91,1.7,91.2c-0.2-0.9-0.4-1.7-0.6-2.6c-3.2-16.2,0.5-32.6,9.3-46.3
			c1.5-0.1,3-0.2,4.6-0.3C11.6,47.6,2.1,65.7,5.2,90.7z M66.5,76.1c-1.7,3.5-23.8,9.3-58.2,14.1c0.6-5.7,4.2-35,16.6-49
			c13.9-0.9,28-1.7,32.3-1.7c1.1,0,2.7,1.4,4.1,3.7C66.7,51.7,69.5,69.9,66.5,76.1z M57.7,54.7c0-5.3-4.3-9.6-9.6-9.6
			s-9.6,4.3-9.6,9.6s4.3,9.6,9.6,9.6S57.7,59.9,57.7,54.7z M126.9,55.6C120.2,22.5,86.7,2.9,52,12c-15.2,4-28.1,12.8-37.2,24.2
			c16.4-1.1,37-2.4,42.5-2.4c3.3,0,6.3,2.1,9,6.4c5.9,9.4,9.6,29.7,5.4,38.4c-1.1,2.3-3.6,7.6-44.7,14.5c-8.4,1.4-16.7,2.6-23.5,3.5
			c1.3,3.6,2.9,7,4.8,10.1h105.9C125.3,92.3,130.5,73.8,126.9,55.6z M114.2,112.5H8.2v5.8h105.9V112.5z M48.1,48.9
			c-3.2,0-5.8,2.6-5.8,5.8c0,3.2,2.6,5.8,5.8,5.8s5.8-2.6,5.8-5.8C53.9,51.5,51.3,48.9,48.1,48.9z"/>
        <path id="motor_x5F_bike" class="st2" d="M59.7,50.2l-8.9-2.8c2.7-3.4,9.5-11,16.5-11.2c9.1-0.3,13,5.8,14.2,7.7c0,0,0,0,0,0
			L59.7,50.2z M128,79.2c0,10.6-8.6,19.1-19.1,19.1c-10.6,0-19.1-8.6-19.1-19.1c0-7,3.7-13,9.3-16.4l-0.2-0.5c0,0-6.7,3-9.2,12
			c-1.1,4.1-2.9,1.5-2.7-0.8c0.4-8.7,10.2-14.9,10.2-14.9C79.9,68.3,86.6,89,86.6,89l-42.2-1.5c0,0-4.8,1.1-5.3,1.5
			c-0.2,0.1-1.3-0.7-2.7-1.8c-3,6.6-9.7,11.1-17.4,11.1C8.6,98.3,0,89.8,0,79.2c0-10.6,8.6-19.1,19.1-19.1c6.6,0,12.4,3.4,15.9,8.5
			l3.4-1.3l2.8,1.3h2.3l3.4,3.2c0,0,0,0-0.4-4.8c-0.4-4.8,5.7-2,5.2-3.5c-0.4-1.5-5.9-11.1-17-11.9C23.6,50.9,7.8,39.9,7.8,39.9
			l1.6-3.2c0,0,18.4,0.6,19.9,2.6c1.5,2,1.8,6.5,1.8,6.5L49,49l10.7,3.4l23.7-6.9c2.9,1.6,8.4,3.2,13.3,2.3
			c6.4-1.2-15.7-15.5-15.7-15.5c-0.4-1.4,7.1-2.5,7.1-2.5s21.1,16.2,23.5,24.8c-3.6,0.4-6.8,1.1-9.5,2.1c5-0.4,12.7-0.5,18.4,1.4
			c-3.9,0.3-7.2,1.3-9.6,2.3C120.4,61.1,128,69.3,128,79.2z M16.4,66.2l5.2,7.5l7.8-2.9c-2.4-2.9-6.1-4.8-10.2-4.8
			C18.2,65.9,17.3,66,16.4,66.2z M20.4,79.3c-0.1-0.7-0.6-1.2-1.3-1.2c-0.8,0-1.4,0.6-1.4,1.4c0,0.1,0,0.3,0.1,0.4
			c0.2,0.6,0.7,1,1.3,1c0.8,0,1.4-0.6,1.4-1.3C20.5,79.4,20.5,79.3,20.4,79.3z M5.8,78.2l9.3-2l0-0.1l2.5-0.9l-5.2-7.5
			C8.7,69.8,6.1,73.7,5.8,78.2z M15.5,80.3L15.5,80.3L15.5,80.3l-9.4,2c1,4,3.7,7.2,7.3,8.9L15.5,80.3L15.5,80.3z M29.2,87.9
			l-9.9-5.5l-1.9,10c0.6,0.1,1.1,0.1,1.7,0.1C23.1,92.6,26.7,90.8,29.2,87.9z M31.8,83.3C29.7,81.5,28,80,28,80l-3.6,0.5l7,3.9
			C31.5,84.1,31.7,83.7,31.8,83.3z M122.2,79.2c0-7.4-6-13.3-13.3-13.3c-1,0-2,0.1-3,0.3l5.5,11.8c0.6,1.2,0,2.7-1.2,3.2v0
			c-1.2,0.6-2.7,0-3.2-1.2l-5.6-12c-3.6,2.4-5.9,6.5-5.9,11.1c0,7.4,6,13.3,13.3,13.3C116.3,92.6,122.2,86.6,122.2,79.2z
			 M109.2,80.6c0.7,0,1.3-0.6,1.3-1.3c0-0.7-0.6-1.3-1.3-1.3c-0.7,0-1.3,0.6-1.3,1.3C107.8,80,108.4,80.6,109.2,80.6z M88,39.6
			c-1.4,0-2.6,1.2-2.6,2.6s1.2,2.6,2.6,2.6c1.4,0,2.6-1.2,2.6-2.6S89.4,39.6,88,39.6z M33.3,44l15.6,3c0,0,2.7-2.4,3.2-3.3
			s-19.5-3.3-19.5-3.3L33.3,44z"/>
	</g>
        <g id="row2">
		<path id="racing_x5F_car_2_" class="st3" d="M128,52l-9.4,5.4l1.7,7.4l0.6,1.3l-6.2,10.4h-3c1.5-2.1,2.4-4.7,2.4-7.6
			c0-7.3-5.9-13.2-13.2-13.2c-7.3,0-13.2,5.9-13.2,13.2c0,2.8,0.9,5.4,2.4,7.6H37.5c1.5-2.1,2.4-4.7,2.4-7.6c0-4.1-1.9-7.8-4.9-10.2
			l7.4-2.2l4.1,4.8h14.3l5.2-7.2v-6.2h4.6v6.6l18.5,3.4l16.8-7l3.6-2.6l18.4-0.5V52z M14,65.8L1,72.4c-1.8,1.3-0.9,4.2,1.3,4.2H16
			c-1.5-2.1-2.4-4.7-2.4-7.6C13.6,67.9,13.7,66.8,14,65.8z M37.6,69c0,2.9-1.2,5.6-3.1,7.6c-2,2-4.7,3.3-7.8,3.3
			c-3,0-5.8-1.3-7.8-3.3c-1.9-1.9-3.1-4.6-3.1-7.6c0-1.7,0.4-3.4,1.1-4.8c1.8-3.6,5.5-6,9.7-6c2,0,3.8,0.5,5.4,1.5
			C35.4,61.6,37.6,65,37.6,69z M33.3,69c0-3.6-2.9-6.6-6.6-6.6c-3.6,0-6.6,2.9-6.6,6.6c0,3.6,3,6.6,6.6,6.6
			C30.4,75.6,33.3,72.7,33.3,69z M26.8,71c1.1,0,1.9-0.9,1.9-1.9s-0.9-1.9-1.9-1.9c-1.1,0-1.9,0.9-1.9,1.9S25.7,71,26.8,71z
			 M111.9,69c0,2.9-1.2,5.6-3.1,7.6c-2,2-4.7,3.3-7.8,3.3c-3,0-5.8-1.3-7.8-3.3c-1.9-1.9-3.1-4.6-3.1-7.6c0-6,4.9-10.8,10.8-10.8
			C107.1,58.2,111.9,63.1,111.9,69z M107.6,69c0-3.6-3-6.6-6.6-6.6c-3.6,0-6.6,2.9-6.6,6.6c0,3.6,2.9,6.6,6.6,6.6
			C104.7,75.6,107.6,72.7,107.6,69z M101.1,67.1c-1.1,0-1.9,0.9-1.9,1.9s0.9,1.9,1.9,1.9c1.1,0,1.9-0.9,1.9-1.9
			S102.1,67.1,101.1,67.1z"/>
            <path id="podium_2_" class="st3" d="M86.7,60.7V26.6H41.3v34.2H0v40.7h128V60.7H86.7z M30.3,91.4H15.5c0-1.6,0.4-3,1-4.2
			c0.6-1.4,2-3,4.3-4.6c2-1.4,3.2-2.4,3.8-3c0.9-0.9,1.3-2,1.3-3.1c0-0.9-0.2-1.7-0.8-2.3c-0.5-0.6-1.2-0.9-2.2-0.9
			c-1.3,0-2.2,0.5-2.6,1.4c-0.3,0.6-0.4,1.4-0.5,2.7h-4.1c0.1-1.8,0.4-3.3,1-4.5c1.1-2.1,3.1-3.2,6-3.2c2.3,0,4.1,0.6,5.4,1.9
			c1.4,1.3,2,2.9,2,5c0,1.6-0.5,3-1.4,4.3c-0.6,0.8-1.6,1.7-3.1,2.7l-1.7,1.2c-1.1,0.8-1.8,1.3-2.2,1.6c-0.4,0.3-0.7,0.7-1,1.2h9.4
			V91.4z M67.3,59.2h-4.3V44.3h-5.1v-2.9c1.3-0.1,2.3-0.2,2.8-0.3c0.9-0.2,1.5-0.6,2.1-1.1c0.4-0.4,0.6-0.9,0.8-1.5
			c0.1-0.4,0.2-0.7,0.2-0.9h3.6V59.2z M111.5,89.9c-1.3,1.4-3.1,2.1-5.6,2.1c-3.1,0-5.2-1-6.4-3c-0.6-1.1-1-2.5-1-4.2h4.2
			c0,0.9,0.1,1.6,0.4,2.1c0.5,1,1.4,1.6,2.8,1.6c0.8,0,1.6-0.3,2.2-0.9c0.6-0.6,0.9-1.4,0.9-2.5c0-1.4-0.6-2.4-1.7-2.9
			c-0.7-0.3-1.7-0.4-3.1-0.4v-3c1.4,0,2.3-0.2,2.9-0.4c0.9-0.4,1.4-1.2,1.4-2.5c0-0.8-0.2-1.5-0.7-2c-0.5-0.5-1.2-0.8-2-0.8
			c-1,0-1.7,0.3-2.2,0.9c-0.5,0.6-0.7,1.5-0.7,2.5h-4c0-1.1,0.2-2.1,0.5-3c0.4-0.8,0.9-1.6,1.6-2.3c0.6-0.5,1.2-0.9,2-1.2
			c0.8-0.3,1.7-0.4,2.8-0.4c2.1,0,3.7,0.5,5,1.6c1.3,1.1,1.9,2.5,1.9,4.3c0,1.3-0.4,2.3-1.1,3.2c-0.5,0.5-1,0.9-1.5,1.1
			c0.4,0,0.9,0.3,1.7,1c1.1,1,1.6,2.4,1.6,4.1C113.4,86.9,112.8,88.5,111.5,89.9z"/>
            <path id="Medal_2_" class="st3" d="M66.3,87.7c-8.9,0-16.1,7.2-16.1,16.1s7.2,16.1,16.1,16.1c8.9,0,16.1-7.2,16.1-16.1
			S75.1,87.7,66.3,87.7z M68.9,114h-4.4V99h-5.1v-2.9c1.3-0.1,2.3-0.2,2.8-0.3c0.9-0.2,1.6-0.6,2.1-1.1c0.4-0.4,0.6-0.9,0.8-1.6
			c0.1-0.4,0.2-0.7,0.2-0.9h3.6V114z M66.3,87.7c-8.9,0-16.1,7.2-16.1,16.1s7.2,16.1,16.1,16.1c8.9,0,16.1-7.2,16.1-16.1
			S75.1,87.7,66.3,87.7z M68.9,114h-4.4V99h-5.1v-2.9c1.3-0.1,2.3-0.2,2.8-0.3c0.9-0.2,1.6-0.6,2.1-1.1c0.4-0.4,0.6-0.9,0.8-1.6
			c0.1-0.4,0.2-0.7,0.2-0.9h3.6V114z M88.3,92.9L77.7,82.1l-15-2.6l-13.7,6.7L42,99.6l2.2,15l10.6,10.9l15,2.6l13.7-6.7l7.1-13.4
			L88.3,92.9z M66.3,123.3c-10.8,0-19.5-8.8-19.5-19.5s8.7-19.5,19.5-19.5c10.8,0,19.5,8.8,19.5,19.5S77,123.3,66.3,123.3z
			 M66.3,87.7c-8.9,0-16.1,7.2-16.1,16.1s7.2,16.1,16.1,16.1c8.9,0,16.1-7.2,16.1-16.1S75.1,87.7,66.3,87.7z M68.9,114h-4.4V99h-5.1
			v-2.9c1.3-0.1,2.3-0.2,2.8-0.3c0.9-0.2,1.6-0.6,2.1-1.1c0.4-0.4,0.6-0.9,0.8-1.6c0.1-0.4,0.2-0.7,0.2-0.9h3.6V114z M108.5,0
			L77.6,65.6l3.5,6.8L115.2,0H108.5z M86.9,0L66.2,43.5l2.8,5.4L92.3,0H86.9z M95,0L70.3,51.5l5.9,11.4L105.8,0H95z M33,0H22.2
			l36.8,76.8h11.7L33,0z M41.1,0h-5.4l37.7,76.8h5.4L41.1,0z M19.5,0h-6.7l36.8,76.8h6.7L19.5,0z"/>
            <path id="tyre_2_" class="st4" d="M45.6,75.4l-6.8,11.1c-5.3-6-8.5-13.8-8.5-22.5v-0.1l13.6,5.7C46,70.6,46.9,73.3,45.6,75.4z
			 M55.7,49.4L56.6,31c-10.1,2.3-18.4,9-22.9,18l17.1,4C53.3,53.6,55.6,51.9,55.7,49.4z M61,84.7L51,95.2c4,1.7,8.4,2.6,13,2.6
			c4.3,0,8.3-0.8,12.1-2.2l-9.2-10.7C65.3,83,62.6,83,61,84.7z M71.2,31l1.1,18.5c0.1,2.4,2.4,4.2,4.8,3.6l17.2-4
			C89.8,40,81.4,33.2,71.2,31z M81.3,75.3l7.1,12.1c5.7-6,9.3-14.1,9.4-23l-14.4,5.2C81,70.5,80,73.2,81.3,75.3z M123.9,70.6
			c-0.4,3.5-1.1,6.9-2,10.2l3.8,1.6l-5,12.2l-3.8-1.6c-1.7,3.1-3.6,6-5.8,8.7l2.9,2.9l-9.3,9.3l-2.9-2.9c-2.7,2.2-5.6,4.1-8.7,5.8
			l1.6,3.8l-12.2,5l-1.6-3.8c-3.3,1-6.7,1.7-10.2,2v4.1H57.4v-4.1c-3.5-0.4-6.9-1.1-10.2-2l-1.6,3.8l-12.2-5l1.6-3.8
			c-3.1-1.7-6-3.6-8.7-5.8l-2.9,2.9l-9.3-9.3l2.9-2.9c-2.2-2.7-4.1-5.6-5.8-8.7l-3.8,1.6l-5-12.2l3.8-1.6c-1-3.3-1.7-6.7-2-10.2H0
			V57.4h4.1c0.4-3.5,1.1-6.9,2-10.2l-3.8-1.6l5-12.2l3.8,1.6c1.7-3.1,3.6-6,5.8-8.7l-2.9-2.9l9.3-9.3l2.9,2.9
			c2.7-2.2,5.6-4.1,8.7-5.8l-1.6-3.8l12.2-5l1.6,3.8c3.3-1,6.7-1.7,10.2-2V0h13.2v4.1c3.5,0.4,6.9,1.1,10.2,2l1.6-3.8l12.2,5
			L93,11.2c3.1,1.7,6,3.6,8.7,5.8l2.9-2.9l9.3,9.3l-2.9,2.9c2.2,2.7,4.1,5.6,5.8,8.7l3.8-1.6l5,12.2l-3.8,1.6c1,3.3,1.7,6.7,2,10.2
			h4.1v13.2H123.9z M104.2,64c0-22.2-18-40.2-40.2-40.2c-22.2,0-40.2,18-40.2,40.2c0,22.2,18,40.2,40.2,40.2
			C86.2,104.2,104.2,86.2,104.2,64z M78.7,58.9c-1.2,0-2.1,1-2.1,2.1c0,1.2,1,2.1,2.1,2.1c1.2,0,2.1-1,2.1-2.1
			C80.8,59.9,79.9,58.9,78.7,58.9z M71.5,75.2c-1.2,0-2.1,1-2.1,2.1c0,1.2,1,2.1,2.1,2.1c1.2,0,2.1-1,2.1-2.1
			C73.7,76.2,72.7,75.2,71.5,75.2z M55.1,75.2c-1.2,0-2.1,1-2.1,2.1c0,1.2,1,2.1,2.1,2.1c1.2,0,2.1-1,2.1-2.1
			C57.3,76.2,56.3,75.2,55.1,75.2z M48.6,58.9c-1.2,0-2.1,1-2.1,2.1c0,1.2,1,2.1,2.1,2.1c1.2,0,2.1-1,2.1-2.1
			C50.8,59.9,49.8,58.9,48.6,58.9z M64.5,47.3c-1.1-0.5-2.3,0.1-2.8,1.1c-0.5,1.1,0.1,2.3,1.1,2.8c1.1,0.5,2.3-0.1,2.8-1.1
			C66.1,49,65.6,47.8,64.5,47.3z M64,55.2c-4.8,0-8.8,3.9-8.8,8.8s3.9,8.8,8.8,8.8s8.8-3.9,8.8-8.8S68.8,55.2,64,55.2z"/>
	</g>
        <g id="row1">
		<path id="gear" class="st3" d="M60.9,92.3h3.8v-6.5L60.9,92.3z M91.5,85.4c-0.3-0.2-0.8-0.3-1.5-0.3h-3.5v4.1h3.4
			c0.7,0,1.2-0.1,1.6-0.3c0.6-0.3,0.9-0.9,0.9-1.7C92.3,86.4,92.1,85.8,91.5,85.4z M91.5,85.4c-0.3-0.2-0.8-0.3-1.5-0.3h-3.5v4.1
			h3.4c0.7,0,1.2-0.1,1.6-0.3c0.6-0.3,0.9-0.9,0.9-1.7C92.3,86.4,92.1,85.8,91.5,85.4z M60.9,92.3h3.8v-6.5L60.9,92.3z M64,10.7
			c-29.4,0-53.3,23.9-53.3,53.3c0,29.4,23.9,53.3,53.3,53.3s53.3-23.9,53.3-53.3C117.3,34.6,93.4,10.7,64,10.7z M88.6,37.3
			c-0.4-0.5-0.9-0.8-1.7-0.8c-0.4,0-0.7,0-0.9,0.1c-0.5,0.2-0.8,0.5-1,0.9l-2.7-0.1l1-8.3h8.3v2.5h-6.2l-0.5,3.3
			c0.4-0.3,0.8-0.5,1.1-0.6c0.4-0.2,1-0.2,1.6-0.2c1.3,0,2.3,0.4,3.3,1.3c0.9,0.8,1.4,2,1.4,3.7c0,1.4-0.4,2.6-1.3,3.7
			c-0.9,1.1-2.2,1.6-4,1.6c-1.5,0-2.6-0.4-3.5-1.2c-0.9-0.8-1.4-1.9-1.5-3.3h2.9c0.1,0.6,0.3,1.2,0.7,1.5c0.3,0.4,0.8,0.5,1.5,0.5
			c0.7,0,1.3-0.3,1.7-0.8c0.4-0.5,0.6-1.2,0.6-1.9C89.1,38.5,88.9,37.8,88.6,37.3z M64.4,37.7c-0.4-0.2-1.2-0.3-2.2-0.3v-2.1
			c1,0,1.6-0.1,2-0.3c0.6-0.3,1-0.9,1-1.8c0-0.6-0.2-1-0.5-1.4c-0.3-0.4-0.8-0.6-1.4-0.6c-0.7,0-1.2,0.2-1.6,0.7
			c-0.3,0.4-0.5,1-0.5,1.8h-2.8c0-0.7,0.2-1.5,0.4-2.1c0.3-0.6,0.6-1.1,1.2-1.6c0.4-0.3,0.9-0.6,1.4-0.8c0.5-0.2,1.2-0.3,2-0.3
			c1.5,0,2.6,0.4,3.5,1.1c0.9,0.7,1.3,1.7,1.3,3c0,0.9-0.3,1.6-0.8,2.3c-0.3,0.4-0.7,0.6-1,0.8c0.3,0,0.7,0.2,1.2,0.7
			c0.7,0.7,1.1,1.7,1.1,2.9c0,1.3-0.4,2.4-1.3,3.4c-0.9,1-2.2,1.5-3.9,1.5c-2.2,0-3.6-0.7-4.5-2.1c-0.4-0.7-0.7-1.7-0.7-2.9h2.9
			c0,0.6,0.1,1.1,0.3,1.5c0.4,0.7,1,1.1,2,1.1c0.6,0,1.1-0.2,1.5-0.6c0.4-0.4,0.7-1,0.7-1.7C65.6,38.6,65.2,38,64.4,37.7z
			 M61.9,61.9V50.1c0-1.2,1-2.1,2.1-2.1c1.2,0,2.1,1,2.1,2.1v11.7h19.2V50.1c0-1.2,1-2.1,2.1-2.1s2.1,1,2.1,2.1v27.7
			c0,1.2-1,2.1-2.1,2.1s-2.1-1-2.1-2.1V66.1H66.1v11.7c0,1.2-1,2.1-2.1,2.1c-1.2,0-2.1-1-2.1-2.1V66.1H42.7v11.7
			c0,1.2-1,2.1-2.1,2.1c-1.2,0-2.1-1-2.1-2.1V50.1c0-1.2,1-2.1,2.1-2.1c1.2,0,2.1,1,2.1,2.1v11.7H61.9z M36,31.6
			c0.9,0,1.6-0.1,2-0.2c0.6-0.1,1.1-0.4,1.5-0.8c0.3-0.3,0.4-0.6,0.6-1.1c0.1-0.3,0.1-0.5,0.1-0.6h2.5V44h-3V33.6H36V31.6z M46,97.9
			H35.6c0-1.1,0.3-2.1,0.7-3c0.4-1,1.4-2.1,3-3.2c1.4-1,2.3-1.7,2.7-2.1c0.6-0.7,0.9-1.4,0.9-2.2c0-0.6-0.2-1.2-0.5-1.6
			c-0.3-0.4-0.9-0.6-1.5-0.6c-0.9,0-1.5,0.3-1.9,1c-0.2,0.4-0.3,1-0.3,1.9h-2.9c0-1.3,0.3-2.3,0.7-3.1c0.8-1.5,2.2-2.3,4.2-2.3
			c1.6,0,2.9,0.4,3.8,1.3c0.9,0.9,1.4,2.1,1.4,3.5c0,1.1-0.3,2.1-1,3c-0.4,0.6-1.2,1.2-2.2,1.9l-1.2,0.9c-0.7,0.5-1.3,0.9-1.5,1.1
			c-0.3,0.2-0.5,0.5-0.7,0.8H46V97.9z M69.3,94.6h-1.7v3.3h-2.9v-3.3h-6V92l5.6-9.2h3.3v9.4h1.7V94.6z M95.8,97.9h-3.5
			c-0.1-0.3-0.2-0.6-0.2-0.8c-0.1-0.4-0.1-0.9-0.1-1.3l0-1.4c0-1-0.2-1.6-0.5-2c-0.3-0.3-0.9-0.5-1.8-0.5h-3.1v6h-3.1V82.5h7.3
			c1,0,1.9,0.1,2.4,0.4c0.6,0.3,1,0.6,1.5,1.1c0.3,0.4,0.6,0.8,0.8,1.3c0.2,0.5,0.3,1,0.3,1.6c0,0.7-0.2,1.5-0.6,2.2
			c-0.4,0.7-1,1.2-1.8,1.5c0.7,0.3,1.2,0.7,1.5,1.2c0.3,0.5,0.4,1.3,0.4,2.4v1c0,0.7,0,1.2,0.1,1.4c0.1,0.4,0.3,0.7,0.6,0.9V97.9z
			 M90,85.2h-3.5v4.1h3.4c0.7,0,1.2-0.1,1.6-0.3c0.6-0.3,0.9-0.9,0.9-1.7c0-0.9-0.3-1.6-0.9-1.9C91.1,85.3,90.6,85.2,90,85.2z
			 M64.7,92.3v-6.5l-3.8,6.5H64.7z M91.5,85.4c-0.3-0.2-0.8-0.3-1.5-0.3h-3.5v4.1h3.4c0.7,0,1.2-0.1,1.6-0.3
			c0.6-0.3,0.9-0.9,0.9-1.7C92.3,86.4,92.1,85.8,91.5,85.4z M91.5,85.4c-0.3-0.2-0.8-0.3-1.5-0.3h-3.5v4.1h3.4
			c0.7,0,1.2-0.1,1.6-0.3c0.6-0.3,0.9-0.9,0.9-1.7C92.3,86.4,92.1,85.8,91.5,85.4z M64,0C28.7,0,0,28.7,0,64s28.7,64,64,64
			s64-28.7,64-64S99.3,0,64,0z M64,121.6C32.2,121.6,6.4,95.8,6.4,64S32.2,6.4,64,6.4s57.6,25.8,57.6,57.6S95.8,121.6,64,121.6z"/>
            <path id="track" class="st3" d="M0,88.8l30-51.2h10.6L18.4,88.8H0z M128,88.8L98,37.6H87.3l22.2,51.2H128z M70.3,37.6H57.7l-0.5,9
			h13.6L70.3,37.6z M71.6,54.2H56.4l-0.7,12h16.6L71.6,54.2z M72.9,75.3H55.1l-0.9,15.1h19.6L72.9,75.3z"/>
            <path id="racing_x5F_track" class="st3" d="M95,35.1H33c-7.9,0-15.2,3.2-20.4,8.5C7.4,48.8,4.1,56,4.1,64
			c0,15.9,13,28.9,28.9,28.9H95c7.9,0,15.2-3.3,20.4-8.5c5.2-5.2,8.5-12.5,8.5-20.4C123.9,48.1,110.9,35.1,95,35.1z M98.8,40.7
			c2.9,0.5,5.6,1.6,8.1,3.2l-1.7,2.6c-2.1-1.4-4.5-2.3-7-2.8L98.8,40.7z M82.2,40.3h8.1v3.1h-8.1V40.3z M66,40.3h8.1v3.1H66V40.3z
			 M49.8,40.3h8.1v3.1h-8.1V40.3z M41.6,40.3v3.1h-8.1l0-3.1H41.6z M12.6,53.5l2.8,1.4c-1.1,2.3-1.7,4.7-1.9,7.2l-3.1-0.2
			C10.6,58.9,11.3,56.1,12.6,53.5z M14.8,78.2c-1.7-2.4-3-5-3.7-7.8l3-0.8c0.7,2.4,1.7,4.7,3.3,6.8L14.8,78.2z M17.7,46.5
			c2.1-2,4.6-3.6,7.3-4.6l1.1,2.9c-2.3,0.9-4.5,2.3-6.3,4L17.7,46.5z M29.2,87.3c-2.9-0.5-5.6-1.6-8.1-3.2l1.7-2.6
			c2.1,1.4,4.5,2.3,7,2.8L29.2,87.3z M45.7,87.7h-8.1v-3.1h8.1V87.7z M62,87.7h-8.1v-3.1H62V87.7z M78.2,87.7h-8.1v-3.1h8.1V87.7z
			 M86.3,87.7v-3.1h8.1l0.1,3.1H86.3z M92.4,79.5H35.6c-8.5,0-15.5-7-15.5-15.5c0-4.3,1.7-8.1,4.6-10.9c2.8-2.8,6.7-4.5,10.9-4.5
			h56.8c8.5,0,15.5,7,15.5,15.5c0,4.3-1.7,8.1-4.6,10.9C100.5,77.7,96.6,79.5,92.4,79.5z M103,86.1l-1.2-2.9c2.3-0.9,4.5-2.3,6.3-4
			l2.1,2.3C108.2,83.4,105.7,85,103,86.1z M113.1,49.7c1.7,2.4,3,5,3.8,7.8l-3,0.8c-0.7-2.4-1.8-4.7-3.3-6.8L113.1,49.7z
			 M112.6,73.1c1.1-2.3,1.7-4.7,1.9-7.2l3.1,0.2c-0.2,2.9-0.9,5.7-2.2,8.4L112.6,73.1z M94.5,30.5H33.5C15.1,30.5,0,45.5,0,64
			c0,18.5,15.1,33.5,33.5,33.5h60.9c18.5,0,33.5-15.1,33.5-33.5C128,45.5,112.9,30.5,94.5,30.5z M94.5,95.5H33.5
			C16.2,95.5,2.1,81.4,2.1,64s14.1-31.5,31.5-31.5h60.9c17.4,0,31.5,14.1,31.5,31.5S111.8,95.5,94.5,95.5z M92.4,50.7H35.6
			c-7.4,0-13.4,6-13.4,13.4c0,7.4,6,13.4,13.4,13.4h56.8c7.4,0,13.4-6,13.4-13.4C105.8,56.7,99.8,50.7,92.4,50.7z M92.4,75.5H35.6
			c-6.3,0-11.4-5.1-11.4-11.4c0-6.3,5.1-11.4,11.4-11.4h56.8c6.3,0,11.4,5.1,11.4,11.4C103.7,70.4,98.7,75.5,92.4,75.5z"/>
            <path id="flag" class="st3" d="M11.2,61.6l3.9,5.5l5.5-3.9l-3.9-5.5L11.2,61.6z M22.2,53.9l3.9,5.5l5.5-3.9L27.7,50L22.2,53.9z
			 M18.9,72.6l3.9,5.5l5.5-3.9l-3.9-5.5L18.9,72.6z M30,64.9l3.9,5.5l5.5-3.9l-3.9-5.5L30,64.9z M31.6,55.6l3.9,5.5l5.5-3.9
			l-3.9-5.5L31.6,55.6z M20.6,63.3l3.9,5.5l5.5-3.9l-3.9-5.5L20.6,63.3z M0,59.2l20.9,29.8l33.3-23.3L76,97c0.7,1,2.1,1.3,3.1,0.6
			c1-0.7,1.3-2.1,0.5-3.1L35.4,31c-0.7-1-2.1-1.3-3.1-0.6c-1,0.7-1.3,2.1-0.5,3.1l1.6,2.3L0,59.2z M6.7,64.8l4.6-3.2l-3.5-5.1
			l5.5-3.9l3.5,5.1l5.5-3.9l-3.5-5.1l5.5-3.9l3.5,5.1l5.5-3.9l-3.5-5.1l4.9-3.4l3.5,5.1l-4.9,3.4l3.9,5.5l4.9-3.4l3.9,5.5L41,57.2
			l3.9,5.5l4.9-3.4l3.2,4.6L48,67.3l-3.2-4.6l-5.5,3.9l3.2,4.6L37,75l-3.2-4.6l-5.5,3.9l3.2,4.6L26,82.7l-3.2-4.6l-4.6,3.2l-3.9-5.5
			l4.6-3.2l-3.9-5.5l-4.6,3.2L6.7,64.8z M111.3,57.8l-3.9,5.5l5.5,3.9l3.9-5.5L111.3,57.8z M100.3,50l-3.9,5.5l5.5,3.9l3.9-5.5
			L100.3,50z M103.6,68.8l-3.9,5.5l5.5,3.9l3.9-5.5L103.6,68.8z M92.5,61.1l-3.9,5.5l5.5,3.9l3.9-5.5L92.5,61.1z M90.9,51.7L87,57.2
			l5.5,3.9l3.9-5.5L90.9,51.7z M101.9,59.4L98,64.9l5.5,3.9l3.9-5.5L101.9,59.4z M94.7,35.9l1.6-2.3c0.7-1,0.5-2.4-0.5-3.1
			c-1-0.7-2.4-0.5-3.1,0.6L48.3,94.4c-0.7,1-0.5,2.4,0.5,3.1c1,0.7,2.4,0.5,3.1-0.6l21.8-31.2l33.3,23.3L128,59.2L94.7,35.9z
			 M117.5,70.3l-4.6-3.2l-3.9,5.5l4.6,3.2l-3.9,5.5l-4.6-3.2l-3.2,4.6l-5.5-3.9l3.2-4.6l-5.5-3.9L91,75l-5.5-3.9l3.2-4.6l-5.5-3.9
			L80,67.3l-4.9-3.4l3.2-4.6l4.9,3.4l3.9-5.5l-4.9-3.4l3.9-5.5l4.9,3.4l3.9-5.5l-4.9-3.4l3.5-5.1l4.9,3.4l-3.5,5.1l5.5,3.9l3.5-5.1
			l5.5,3.9l-3.5,5.1l5.5,3.9l3.5-5.1l5.5,3.9l-3.5,5.1l4.6,3.2L117.5,70.3z"/>
	</g>
</g>
</svg>
