<?xml version="1.0" encoding="utf-8"?>
<!-- Generator: Adobe Illustrator 23.0.0, SVG Export Plug-In . SVG Version: 6.00 Build 0)  -->
<svg xmlns:inkscape="http://www.inkscape.org/namespaces/inkscape"
	 xmlns:sodipodi="http://sodipodi.sourceforge.net/DTD/sodipodi-0.dtd" version="1.1"
	 id="svg16"
	 xmlns="http://www.w3.org/2000/svg" x="0px" y="0px" viewBox="0 0 5000 5000"
	 style="enable-background:new 0 0 5000 5000;" xml:space="preserve">
<style type="text/css">
	.st0{fill:none;stroke:#000000;stroke-width:50;stroke-linecap:round;stroke-linejoin:round;}
	.st1{fill:none;stroke:#000000;stroke-width:50;stroke-linejoin:round;}
	.st2{fill:none;stroke:#000000;stroke-width:50;}
	.st3{fill:none;stroke:#000000;stroke-width:50;stroke-linecap:square;}
	.st4{fill:none;stroke:#000000;stroke-width:50;stroke-linecap:square;stroke-linejoin:round;}
	.st5{fill:none;stroke:#000000;stroke-width:50;stroke-linecap:round;}
	.st6{fill:#FFFFFF;}
	.st7{fill-opacity:0;stroke:#000000;stroke-width:50;stroke-linecap:square;stroke-linejoin:round;}
</style>
	<g>
	<path id="rect3959" inkscape:connector-curvature="0" sodipodi:nodetypes="ssccccsss" class="st0" d="M1741.4,2111.1
		c-147.3,0-265.9,118.3-265.9,265.2v109V2783h2044.2v-297.6v-109c0-146.9-118.6-265.2-265.9-265.2H1741.4z"/>
		<path id="rect3968" inkscape:connector-curvature="0" class="st0" d="M2433.7,2783v997.8c19.7-10.5,41.6-16,64-16
		c22.3,0,44.3,5.5,64,16V2783H2433.7z"/>
		<path id="rect3971" inkscape:connector-curvature="0" class="st0" d="M1966,3901c-50.2,0-90.6,60.8-90.6,136.2h1244.3
		c0-75.5-40.4-136.2-90.6-136.2H1966z"/>
		<path id="rect3976" inkscape:connector-curvature="0" class="st0"
			  d="M1475.5,2485.3h2044.2v137.1H1475.5V2485.3z"/>
		<path id="path3979" inkscape:connector-curvature="0" sodipodi:nodetypes="csccscc" class="st0" d="M2427.7,1390.6
		c0,266.1-73.3,414.4-73.3,507.8c0,90.8,8.9,170.1,50.7,212.7h184.9c41.7-42.6,50.7-121.9,50.7-212.7c0-93.4-73.3-246.1-73.3-507.8
		H2427.7z"/>
		<path id="path3981" inkscape:connector-curvature="0" sodipodi:nodetypes="ccccc" class="st0" d="M2399.9,962.8v197
		c0,46.3,44.3,83.8,99,83.8c54.7,0,99-37.5,99-83.8L2399.9,962.8z"/>
		<path id="path3994" inkscape:connector-curvature="0" class="st0" d="M2498.9,1061.2l99-98.5v197L2498.9,1061.2z"/>
		<path id="path3996" inkscape:connector-curvature="0" class="st5" d="M2498.9,1243.5v147.1"/>
		<path id="rect3998" class="st0" d="M429.3,3062.5h1090.9c7.6,0,13.7,6.1,13.7,13.7v150.4c0,7.6-6.1,13.7-13.7,13.7H429.3
		c-7.6,0-13.7-6.1-13.7-13.7v-150.4C415.6,3068.6,421.7,3062.5,429.3,3062.5z"/>
		<path id="rect4000" inkscape:connector-curvature="0" sodipodi:nodetypes="ccccccc" class="st0" d="M522,1334.4l-107.6,90.4
		l104.7,117.6v1520.2h141.7V1489.4L522,1334.4z"/>
		<path id="rect4002" inkscape:connector-curvature="0" sodipodi:nodetypes="cccsc" class="st0" d="M660.9,2876.3v186.2h756.2
		c0-103.1-83-186.2-186.1-186.2H660.9z"/>
		<path id="path4010" inkscape:connector-curvature="0" class="st0" d="M2497.6,3764.8c-75.3,0-136.3,61-136.3,136.2c0,0,0,0,0,0
		h272.6C2633.9,3825.8,2572.9,3764.8,2497.6,3764.8C2497.6,3764.8,2497.6,3764.8,2497.6,3764.8L2497.6,3764.8z"/>
		<rect id="rect4019" x="519.2" y="3240.2" class="st0" width="141.7" height="797"/>
		<rect id="rect4034" x="1275.4" y="3240.2" class="st0" width="141.7" height="797"/>
		<path id="rect4036" class="st0" d="M679.5,3240.2h577.3c10.3,0,18.6,8.3,18.6,18.6v204.5c0,10.3-8.3,18.6-18.6,18.6H679.5
		c-10.3,0-18.6-8.3-18.6-18.6v-204.5C660.9,3248.5,669.2,3240.2,679.5,3240.2z"/>
		<path id="rect4041" class="st0" d="M4570.7,3062.5H3479.8c-7.6,0-13.7,6.1-13.7,13.7v150.4c0,7.6,6.1,13.7,13.7,13.7h1090.9
		c7.6,0,13.7-6.1,13.7-13.7v-150.4C4584.4,3068.6,4578.3,3062.5,4570.7,3062.5z"/>
		<path id="path4043" inkscape:connector-curvature="0" sodipodi:nodetypes="ccccccc" class="st0" d="M4478,1334.4l107.6,90.4
		l-104.7,117.6v1520.2h-141.7V1489.4L4478,1334.4z"/>
		<path id="path4045" inkscape:connector-curvature="0" sodipodi:nodetypes="cccsc" class="st0" d="M4339.1,2876.3v186.2h-756.2
		c0-103.1,83-186.2,186.1-186.2H4339.1z"/>
		<rect id="rect4047" x="4339.1" y="3240.2" class="st0" width="141.7" height="797"/>
		<rect id="rect4049" x="3582.9" y="3240.2" class="st0" width="141.7" height="797"/>
		<path id="rect4051" class="st0" d="M4320.5,3240.2h-577.3c-10.3,0-18.6,8.3-18.6,18.6v204.5c0,10.3,8.3,18.6,18.6,18.6h577.3
		c10.3,0,18.6-8.3,18.6-18.6v-204.5C4339.1,3248.5,4330.8,3240.2,4320.5,3240.2z"/>
</g>
</svg>
