<?xml version="1.0" encoding="utf-8"?>
<!-- Generator: Adobe Illustrator 23.0.0, SVG Export Plug-In . SVG Version: 6.00 Build 0)  -->
<svg xmlns:inkscape="http://www.inkscape.org/namespaces/inkscape"
	 xmlns:sodipodi="http://sodipodi.sourceforge.net/DTD/sodipodi-0.dtd" version="1.1"
	 id="svg16"
	 xmlns="http://www.w3.org/2000/svg" x="0px" y="0px" viewBox="0 0 5000 5000"
	 style="enable-background:new 0 0 5000 5000;" xml:space="preserve">
<style type="text/css">
	.st0{fill:#FFFFFF;}
	.st1{fill:#E6E6E6;}
	.st2{fill:#FFF6D5;}
	.st3{fill:#E9DDAF;}
	.st4{fill:#FFDD55;}
	.st5{fill:#D35F5F;}
	.st6{fill:#F2F2F2;}
	.st7{fill:#CCCCCC;}
	.st8{fill:#A02C2C;}
	.st9{fill:#DE8787;}
	.st10{fill:#D3BC5F;}
	.st11{fill:none;stroke:#000000;stroke-width:50;stroke-linecap:round;stroke-linejoin:round;}
	.st12{fill:#D38D5F;}
	.st13{fill:#89A02C;}
	.st14{fill:#FFE680;}
	.st15{fill:#FF9955;}
	.st16{fill:#ECECEC;}
	.st17{fill:#D35F8D;}
	.st18{fill:#FF5555;}
	.st19{fill:#FFD5D5;}
	.st20{fill:#DE87AA;}
	.st21{fill:#A02C5A;}
	.st22{fill:#FFAAAA;}
	.st23{fill:#C83737;}
	.st24{fill:#677821;}
	.st25{fill:#ABC837;}
	.st26{fill:#C87137;}
	.st27{fill:#FFCCAA;}
	.st28{fill:#DEAA87;}
	.st29{fill:#A05A2C;}
	.st30{fill:#B3B3B3;}
	.st31{fill:none;stroke:#000000;stroke-width:50;stroke-linejoin:round;}
	.st32{fill:none;stroke:#000000;stroke-width:50;}
	.st33{fill:none;stroke:#000000;stroke-width:50;stroke-linecap:square;}
	.st34{fill:none;stroke:#000000;stroke-width:50;stroke-linecap:square;stroke-linejoin:round;}
	.st35{fill:#FFB380;}
	.st36{fill:#FF80B2;}
	.st37{fill:#FFAACC;}
	.st38{fill:none;stroke:#000000;stroke-width:50;stroke-linecap:round;}
	.st39{fill:#F4EED7;}
	.st40{fill:#FFEEAA;}
	.st41{fill:#E9AFAF;}
	.st42{fill:#782144;}
	.st43{fill:#A0892C;}
	.st44{fill:#DECD87;}
	.st45{fill:#C8BEB7;}
	.st46{fill:#D45500;}
	.st47{fill:#4D4D4D;}
	.st48{fill:#808080;}
	.st49{fill:#333333;}
	.st50{fill:#784421;}
	.st51{fill:#502D16;}
	.st52{fill:#FFE6D5;}
	.st53{fill-opacity:0;stroke:#000000;stroke-width:50;stroke-linecap:square;stroke-linejoin:round;}
	.st54{fill:#AFC6E9;}
	.st55{fill:#D7E3F4;}
	.st56{fill:#939DAC;}
	.st57{fill:#666666;}
	.st58{fill:#999999;}
	.st59{fill:#666666;stroke:#000000;stroke-width:50;stroke-linecap:round;stroke-linejoin:round;}
	.st60{fill:#AACCFF;}
	.st61{fill:#D5E5FF;}
	.st62{fill:#87AADE;}
	.st63{fill:#FF8080;}
	.st64{fill:#6F7C91;}
</style>
	<g>
	<path id="path1678" inkscape:connector-curvature="0" sodipodi:nodetypes="ssccccsss" class="st18" d="M1741.4,2111.1
		c-147.3,0-265.9,118.3-265.9,265.2v109V2783h2044.2v-297.6v-109c0-146.9-118.6-265.2-265.9-265.2H1741.4z"/>
		<path id="path1680" inkscape:connector-curvature="0" class="st35" d="M2433.7,2783v997.8c19.7-10.5,41.6-16,64-16
		c22.3,0,44.3,5.5,64,16V2783H2433.7z"/>
		<path id="path1682" inkscape:connector-curvature="0" class="st35" d="M1966,3901c-50.2,0-90.6,60.8-90.6,136.2h1244.3
		c0-75.5-40.4-136.2-90.6-136.2H1966z"/>
		<path id="path1684" inkscape:connector-curvature="0" class="st14"
			  d="M1475.5,2485.3h2044.2v137.1H1475.5V2485.3z"/>
		<path id="path1686" inkscape:connector-curvature="0" sodipodi:nodetypes="csccscc" class="st54" d="M2427.7,1390.6
		c0,266.1-73.3,414.4-73.3,507.8c0,90.8,8.9,170.1,50.7,212.7h184.9c41.7-42.6,50.7-121.9,50.7-212.7c0-93.4-73.3-246.1-73.3-507.8
		H2427.7z"/>
		<path id="path1688" inkscape:connector-curvature="0" sodipodi:nodetypes="ccccc" class="st37" d="M2399.9,962.8v197
		c0,46.3,44.3,83.8,99,83.8c54.7,0,99-37.5,99-83.8L2399.9,962.8z"/>
		<path id="path1690" inkscape:connector-curvature="0" class="st37"
			  d="M2498.9,1061.2l99-98.5v197L2498.9,1061.2z"/>
		<path id="rect1694" class="st28" d="M429.3,3062.5h1090.9c7.6,0,13.7,6.1,13.7,13.7v150.4c0,7.6-6.1,13.7-13.7,13.7H429.3
		c-7.6,0-13.7-6.1-13.7-13.7v-150.4C415.6,3068.6,421.7,3062.5,429.3,3062.5z"/>
		<path id="path1696" inkscape:connector-curvature="0" sodipodi:nodetypes="ccccccc" class="st28" d="M522,1334.4l-107.6,90.4
		l104.7,117.6v1520.2h141.7V1489.4L522,1334.4z"/>
		<path id="path1698" inkscape:connector-curvature="0" sodipodi:nodetypes="cccsc" class="st15" d="M660.9,2876.3v186.2h756.2
		c0-103.1-83-186.2-186.1-186.2H660.9z"/>
		<path id="path1700" inkscape:connector-curvature="0" class="st12" d="M2497.6,3764.8c-75.3,0-136.3,61-136.3,136.2c0,0,0,0,0,0
		h272.6C2633.9,3825.8,2572.9,3764.8,2497.6,3764.8C2497.6,3764.8,2497.6,3764.8,2497.6,3764.8L2497.6,3764.8z"/>
		<rect id="rect1702" x="519.2" y="3240.2" class="st28" width="141.7" height="797"/>
		<rect id="rect1704" x="1275.4" y="3240.2" class="st28" width="141.7" height="797"/>
		<path id="rect1706" class="st12" d="M679.5,3240.2h577.3c10.3,0,18.6,8.3,18.6,18.6v204.5c0,10.3-8.3,18.6-18.6,18.6H679.5
		c-10.3,0-18.6-8.3-18.6-18.6v-204.5C660.9,3248.5,669.2,3240.2,679.5,3240.2z"/>
		<path id="path2709" inkscape:connector-curvature="0" class="st55" d="M2513.2,1390.6c0,261.7,73.3,414.4,73.3,507.8
		c0,90.8-8.9,170.1-50.7,212.7h54.3c41.7-42.6,50.7-121.9,50.7-212.7c0-93.4-73.3-246.1-73.3-507.8H2513.2z"/>
		<path id="path2714" inkscape:connector-curvature="0" class="st22" d="M1741.4,2111.1c-147.3,0-265.9,118.3-265.9,265.2v88.6
		c0-146.9,118.6-265.2,265.9-265.2h1512.4c147.3,0,265.9,118.3,265.9,265.2v-88.6c0-146.9-118.6-265.2-265.9-265.2H1741.4z"/>
		<path id="path2719" inkscape:connector-curvature="0" class="st23"
			  d="M1475.5,2707.4h2044.2v75.5H1475.5V2707.4z"/>
		<path id="path2721" inkscape:connector-curvature="0" class="st10"
			  d="M1475.5,2553.9h2044.2v68.5H1475.5V2553.9z"/>
		<path id="path2725" inkscape:connector-curvature="0" class="st56" d="M2482,1390.6c0,261.7-73.3,414.4-73.3,507.8
		c0,90.8,8.9,170.1,50.7,212.7h-54.3c-41.7-42.6-50.7-121.9-50.7-212.7c0-93.4,73.3-246.1,73.3-507.8H2482z"/>
		<path id="rect2738" class="st26" d="M422.1,3155.4h1105.2c3.6,0,6.5,2.9,6.5,6.5v71.8c0,3.6-2.9,6.5-6.5,6.5H422.1
		c-3.6,0-6.5-2.9-6.5-6.5v-71.8C415.6,3158.3,418.5,3155.4,422.1,3155.4z"/>
		<path id="rect2740" class="st29" d="M666.3,3240.2H1270c3,0,5.4,2.4,5.4,5.4v59.1c0,3-2.4,5.4-5.4,5.4H666.3c-3,0-5.4-2.4-5.4-5.4
		v-59.1C660.9,3242.6,663.3,3240.2,666.3,3240.2z"/>
		<rect id="rect2742" x="1275.4" y="3240.2" class="st26" width="141.7" height="68.5"/>
		<rect id="rect2744" x="519.2" y="3240.2" class="st26" width="141.7" height="68.5"/>
		<path id="path2746" inkscape:connector-curvature="0" class="st27" d="M660.9,2876.3v61.4H1231c81.6,0,150.5,52,175.8,124.7h10.3
		c0-103.1-83-186.2-186.1-186.2H660.9z"/>
		<path id="path2751" inkscape:connector-curvature="0" class="st26" d="M522,1334.4l-107.6,90.4l104.7,117.6v1520.2h141.7V3014
		h-79.6V1493.8l-104.7-117.6l47.3-39.7L522,1334.4z"/>
		<path id="rect2758" inkscape:connector-curvature="0" class="st12" d="M2433.7,2783h127.9v105.8h-127.9V2783z"/>
		<path id="path2763" inkscape:connector-curvature="0" class="st52" d="M1966,3901c-50.2,0-90.6,60.8-90.6,136.2h9.6
		c14.9-44.5,45.5-74.8,80.9-74.8h1063.1c35.5,0,66,30.4,80.9,74.8h9.6c0-75.5-40.4-136.2-90.6-136.2H1966z"/>
		<path id="path2842" inkscape:connector-curvature="0" class="st22" d="M2036.3,2197.3c0,19.3-36.5,35-81.4,35s-81.4-15.7-81.4-35
		c0-19.3,36.5-35,81.4-35S2036.3,2178,2036.3,2197.3z"/>
		<path id="path2845" inkscape:connector-curvature="0" class="st22" d="M3257.8,2192.9c0,25.2-39.5,45.6-88.3,45.6l0,0
		c-48.8,0-88.3-20.4-88.3-45.6s39.5-45.6,88.3-45.6C3218.2,2147.3,3257.8,2167.7,3257.8,2192.9z"/>
		<path id="path2847" inkscape:connector-curvature="0" class="st23" d="M2337,2712.5c0,16.5-26,29.9-58,29.9h0
		c-32,0-58-13.4-58-29.9l0,0c0-16.5,26-29.9,58-29.9S2337,2696,2337,2712.5L2337,2712.5z"/>
		<path id="path2849" inkscape:connector-curvature="0" class="st52" d="M2305.4,3958.1c0,12.8-20.1,23.2-44.8,23.2h0
		c-24.8,0-44.8-10.4-44.8-23.2c0,0,0,0,0,0c0-12.8,20.1-23.2,44.8-23.2C2285.3,3935,2305.4,3945.4,2305.4,3958.1z"/>
		<path id="path2851" inkscape:connector-curvature="0" class="st29" d="M849.7,3305.3c0,16.4-25.7,29.7-57.4,29.7c0,0,0,0,0,0
		c-31.7,0-57.4-13.3-57.4-29.7c0-16.4,25.7-29.7,57.4-29.7C824,3275.6,849.7,3288.9,849.7,3305.3z"/>
		<path id="path2853" inkscape:connector-curvature="0" class="st28" d="M1372.9,3149.1c0,16.4-25.7,29.7-57.4,29.7c0,0,0,0,0,0
		c-31.7,0-57.4-13.3-57.4-29.7c0-16.4,25.7-29.7,57.4-29.7C1347.2,3119.4,1372.9,3132.7,1372.9,3149.1z"/>
		<path id="path2855" inkscape:connector-curvature="0" class="st28" d="M964.9,3150.9c0,13.9-21.9,25.2-48.9,25.2h0
		c-27,0-48.9-11.3-48.9-25.2c0-13.9,21.9-25.2,48.9-25.2C943,3125.7,964.9,3137,964.9,3150.9z"/>
		<path id="path2857" inkscape:connector-curvature="0" class="st27" d="M810.8,2932.6c0,13.9-21.9,25.2-48.9,25.2h0
		c-27,0-48.9-11.3-48.9-25.2c0-13.9,21.9-25.2,48.9-25.2C789,2907.4,810.8,2918.7,810.8,2932.6z"/>
		<path id="path2859" inkscape:connector-curvature="0" class="st26" d="M577,2499.2c-13.9,0-25.2-21.9-25.2-48.9c0,0,0,0,0,0
		c0-27,11.3-48.9,25.2-48.9c13.9,0,25.2,21.9,25.2,48.9C602.2,2477.3,590.9,2499.2,577,2499.2z"/>
		<path id="path2861" inkscape:connector-curvature="0" class="st26" d="M577,1727.8c-13.9,0-25.2-21.9-25.2-48.9c0,0,0,0,0,0
		c0-27,11.3-48.9,25.2-48.9c13.9,0,25.2,21.9,25.2,48.9C602.2,1705.9,590.9,1727.8,577,1727.8z"/>
		<ellipse id="path2863" class="st55" cx="2585.4" cy="1934.4" rx="29.1" ry="51"/>
		<path id="path2865" inkscape:connector-curvature="0" class="st20" d="M2399.9,962.8v197c0,46.3,44.3,83.8,99,83.8
		c48.3,0,88.5-29.3,97.2-68c-18.1,17.5-44.8,28.6-74.5,28.6c-54.7,0-99-37.5-99-83.8V985.4L2399.9,962.8z"/>
		<path id="rect2870" class="st28" d="M4570.7,3062.5H3479.8c-7.6,0-13.7,6.1-13.7,13.7v150.4c0,7.6,6.1,13.7,13.7,13.7h1090.9
		c7.6,0,13.7-6.1,13.7-13.7v-150.4C4584.4,3068.6,4578.3,3062.5,4570.7,3062.5z"/>
		<path id="path2872" inkscape:connector-curvature="0" sodipodi:nodetypes="ccccccc" class="st28" d="M4478,1334.4l107.6,90.4
		l-104.7,117.6v1520.2h-141.7V1489.4L4478,1334.4z"/>
		<path id="path2874" inkscape:connector-curvature="0" sodipodi:nodetypes="cccsc" class="st15" d="M4339.1,2876.3v186.2h-756.2
		c0-103.1,83-186.2,186.1-186.2H4339.1z"/>
		<rect id="rect2876" x="4339.1" y="3240.2" class="st28" width="141.7" height="797"/>
		<rect id="rect2878" x="3582.9" y="3240.2" class="st28" width="141.7" height="797"/>
		<path id="rect2880" class="st12" d="M4320.5,3240.2h-577.3c-10.3,0-18.6,8.3-18.6,18.6v204.5c0,10.3,8.3,18.6,18.6,18.6h577.3
		c10.3,0,18.6-8.3,18.6-18.6v-204.5C4339.1,3248.5,4330.8,3240.2,4320.5,3240.2z"/>
		<path id="rect2882" class="st26" d="M4577.9,3155.4H3472.7c-3.6,0-6.5,2.9-6.5,6.5v71.8c0,3.6,2.9,6.5,6.5,6.5h1105.2
		c3.6,0,6.5-2.9,6.5-6.5v-71.8C4584.4,3158.3,4581.5,3155.4,4577.9,3155.4z"/>
		<path id="rect2884" class="st29" d="M4333.7,3240.2H3730c-3,0-5.4,2.4-5.4,5.4v59.1c0,3,2.4,5.4,5.4,5.4h603.8c3,0,5.4-2.4,5.4-5.4
		v-59.1C4339.1,3242.6,4336.7,3240.2,4333.7,3240.2z"/>
		<rect id="rect2886" x="3582.9" y="3240.2" class="st26" width="141.7" height="68.5"/>
		<rect id="rect2888" x="4339.1" y="3240.2" class="st26" width="141.7" height="68.5"/>
		<path id="path2890" inkscape:connector-curvature="0" class="st27" d="M4339.1,2876.3v61.4H3769c-81.6,0-150.5,52-175.8,124.7
		h-10.3c0-103.1,83-186.2,186.1-186.2L4339.1,2876.3z"/>
		<path id="path2892" inkscape:connector-curvature="0" class="st26" d="M4478,1334.4l107.6,90.4l-104.7,117.6v1520.2h-141.7V3014
		h79.6V1493.8l104.7-117.6l-47.3-39.7L4478,1334.4z"/>
		<path id="path2894" inkscape:connector-curvature="0" class="st29" d="M3858.3,3305.3c0,16.4,25.7,29.7,57.4,29.7h0
		c31.7,0,57.4-13.3,57.4-29.7c0-16.4-25.7-29.7-57.4-29.7C3884.1,3275.6,3858.3,3288.9,3858.3,3305.3z"/>
		<path id="path2896" inkscape:connector-curvature="0" class="st28" d="M3669.1,3149.1c0,15.1,23.6,27.3,52.8,27.3l0,0
		c29.2,0,52.8-12.2,52.8-27.3l0,0c0-15.1-23.6-27.3-52.8-27.3S3669.1,3134,3669.1,3149.1z"/>
		<path id="path2898" inkscape:connector-curvature="0" class="st28" d="M4294.7,3150.9c0,13.9,21.9,25.2,48.9,25.2h0
		c27,0,48.9-11.3,48.9-25.2c0-13.9-21.9-25.2-48.9-25.2C4316.6,3125.7,4294.7,3137,4294.7,3150.9z"/>
		<path id="path2900" inkscape:connector-curvature="0" class="st27" d="M3981.1,2932.6c0,13.9,21.9,25.2,48.9,25.2h0
		c27,0,48.9-11.3,48.9-25.2c0-13.9-21.9-25.2-48.9-25.2C4002.9,2907.4,3981.1,2918.7,3981.1,2932.6z"/>
		<path id="path2902" inkscape:connector-curvature="0" class="st26" d="M4423,2562.2c11.2,0,20.2-17.5,20.2-39.2c0,0,0,0,0,0
		c0-21.6-9.1-39.2-20.2-39.2c-11.2,0-20.2,17.5-20.2,39.2C4402.8,2544.7,4411.8,2562.2,4423,2562.2z"/>
		<path id="path2904" inkscape:connector-curvature="0" class="st26" d="M4423,1859.1c13.9,0,25.2-21.9,25.2-48.9c0,0,0,0,0,0
		c0-27-11.3-48.9-25.2-48.9c-13.9,0-25.2,21.9-25.2,48.9C4397.8,1837.2,4409.1,1859.1,4423,1859.1z"/>
		<path id="rect3959" inkscape:connector-curvature="0" sodipodi:nodetypes="ssccccsss" class="st11" d="M1741.4,2111.1
		c-147.3,0-265.9,118.3-265.9,265.2v109V2783h2044.2v-297.6v-109c0-146.9-118.6-265.2-265.9-265.2H1741.4z"/>
		<path id="rect3968" inkscape:connector-curvature="0" class="st11" d="M2433.7,2783v997.8c19.7-10.5,41.6-16,64-16
		c22.3,0,44.3,5.5,64,16V2783H2433.7z"/>
		<path id="rect3971" inkscape:connector-curvature="0" class="st11" d="M1966,3901c-50.2,0-90.6,60.8-90.6,136.2h1244.3
		c0-75.5-40.4-136.2-90.6-136.2H1966z"/>
		<path id="rect3976" inkscape:connector-curvature="0" class="st11"
			  d="M1475.5,2485.3h2044.2v137.1H1475.5V2485.3z"/>
		<path id="path3979" inkscape:connector-curvature="0" sodipodi:nodetypes="csccscc" class="st11" d="M2427.7,1390.6
		c0,266.1-73.3,414.4-73.3,507.8c0,90.8,8.9,170.1,50.7,212.7h184.9c41.7-42.6,50.7-121.9,50.7-212.7c0-93.4-73.3-246.1-73.3-507.8
		H2427.7z"/>
		<path id="path3981" inkscape:connector-curvature="0" sodipodi:nodetypes="ccccc" class="st11" d="M2399.9,962.8v197
		c0,46.3,44.3,83.8,99,83.8c54.7,0,99-37.5,99-83.8L2399.9,962.8z"/>
		<path id="path3994" inkscape:connector-curvature="0" class="st11"
			  d="M2498.9,1061.2l99-98.5v197L2498.9,1061.2z"/>
		<path id="path3996" inkscape:connector-curvature="0" class="st38" d="M2498.9,1243.5v147.1"/>
		<path id="rect3998" class="st11" d="M429.3,3062.5h1090.9c7.6,0,13.7,6.1,13.7,13.7v150.4c0,7.6-6.1,13.7-13.7,13.7H429.3
		c-7.6,0-13.7-6.1-13.7-13.7v-150.4C415.6,3068.6,421.7,3062.5,429.3,3062.5z"/>
		<path id="rect4000" inkscape:connector-curvature="0" sodipodi:nodetypes="ccccccc" class="st11" d="M522,1334.4l-107.6,90.4
		l104.7,117.6v1520.2h141.7V1489.4L522,1334.4z"/>
		<path id="rect4002" inkscape:connector-curvature="0" sodipodi:nodetypes="cccsc" class="st11" d="M660.9,2876.3v186.2h756.2
		c0-103.1-83-186.2-186.1-186.2H660.9z"/>
		<path id="path4010" inkscape:connector-curvature="0" class="st11" d="M2497.6,3764.8c-75.3,0-136.3,61-136.3,136.2c0,0,0,0,0,0
		h272.6C2633.9,3825.8,2572.9,3764.8,2497.6,3764.8C2497.6,3764.8,2497.6,3764.8,2497.6,3764.8L2497.6,3764.8z"/>
		<rect id="rect4019" x="519.2" y="3240.2" class="st11" width="141.7" height="797"/>
		<rect id="rect4034" x="1275.4" y="3240.2" class="st11" width="141.7" height="797"/>
		<path id="rect4036" class="st11" d="M679.5,3240.2h577.3c10.3,0,18.6,8.3,18.6,18.6v204.5c0,10.3-8.3,18.6-18.6,18.6H679.5
		c-10.3,0-18.6-8.3-18.6-18.6v-204.5C660.9,3248.5,669.2,3240.2,679.5,3240.2z"/>
		<path id="rect4041" class="st11" d="M4570.7,3062.5H3479.8c-7.6,0-13.7,6.1-13.7,13.7v150.4c0,7.6,6.1,13.7,13.7,13.7h1090.9
		c7.6,0,13.7-6.1,13.7-13.7v-150.4C4584.4,3068.6,4578.3,3062.5,4570.7,3062.5z"/>
		<path id="path4043" inkscape:connector-curvature="0" sodipodi:nodetypes="ccccccc" class="st11" d="M4478,1334.4l107.6,90.4
		l-104.7,117.6v1520.2h-141.7V1489.4L4478,1334.4z"/>
		<path id="path4045" inkscape:connector-curvature="0" sodipodi:nodetypes="cccsc" class="st11" d="M4339.1,2876.3v186.2h-756.2
		c0-103.1,83-186.2,186.1-186.2H4339.1z"/>
		<rect id="rect4047" x="4339.1" y="3240.2" class="st11" width="141.7" height="797"/>
		<rect id="rect4049" x="3582.9" y="3240.2" class="st11" width="141.7" height="797"/>
		<path id="rect4051" class="st11" d="M4320.5,3240.2h-577.3c-10.3,0-18.6,8.3-18.6,18.6v204.5c0,10.3,8.3,18.6,18.6,18.6h577.3
		c10.3,0,18.6-8.3,18.6-18.6v-204.5C4339.1,3248.5,4330.8,3240.2,4320.5,3240.2z"/>
</g>
</svg>
